<?xml version="1.0" encoding="utf-8"?>
<!-- Generator: Adobe Illustrator 21.1.0, SVG Export Plug-In . SVG Version: 6.00 Build 0)  -->
<svg version="1.1" xmlns="http://www.w3.org/2000/svg" xmlns:xlink="http://www.w3.org/1999/xlink" x="0px" y="0px"
	 viewBox="0 0 494.5 559.4" style="enable-background:new 0 0 494.5 559.4;" xml:space="preserve">
<style type="text/css">
	.st0{fill:#E2E2E2;}
	.st1{fill:none;stroke:#555656;stroke-linecap:round;stroke-linejoin:round;stroke-miterlimit:10;}
	.st2{fill:none;stroke:#000000;stroke-width:2;stroke-miterlimit:10;}
	.st3{fill:#EEEDEE;stroke:#555656;stroke-miterlimit:10;}
	.st4{fill:#FFFFFF;stroke:#555656;stroke-miterlimit:10;}
	.st5{fill:#C2C1C0;}
	.st6{fill:#A7ABB5;stroke:#555656;stroke-miterlimit:10;}
	.st7{fill:#7B7B7B;stroke:#555656;stroke-miterlimit:10;}
	.st8{fill:#DDDEE0;stroke:#555656;stroke-miterlimit:10;}
	.st9{fill:#ED2024;stroke:#555656;stroke-miterlimit:10;}
	.st10{fill:#DDDEE2;stroke:#555656;stroke-miterlimit:10;}
	.st11{fill:#C2C1C0;stroke:#B5B5B5;stroke-width:0.5;stroke-miterlimit:10;}
	.st12{fill:#C2C1C0;stroke:#B7B7B7;stroke-width:0.5;stroke-miterlimit:10;}
	.st13{fill:#C2C1C0;stroke:#555656;stroke-miterlimit:10;}
	.st14{fill:#EDEEEF;stroke:#555656;stroke-miterlimit:10;}
	.st15{fill:#555656;stroke:#C2C1C0;stroke-miterlimit:10;}
	.st16{fill:none;stroke:#555656;stroke-miterlimit:10;}
	.st17{fill:#D8D8D8;stroke:#555656;stroke-miterlimit:10;}
	.st18{fill:#E5E5E5;stroke:#555656;stroke-linecap:round;stroke-linejoin:round;stroke-miterlimit:10;}
	.st19{fill:#FFFFFF;stroke:#555656;stroke-linecap:round;stroke-linejoin:round;stroke-miterlimit:10;}
	.st20{fill:#EEEDEE;}
	.st21{fill:none;}
</style>
<g id="Water">
	<path id="water-color" class="st0" d="M473.8,378.6C449.3,481.7,356.6,558.4,246,558.4c-110.8,0-203.7-77-228-180.4"/>
	<g id="boat">
		<polygon class="st1" points="173.1,434.8 167.5,445.6 172.8,445.6 178.1,445.6 		"/>
		<line class="st1" x1="173.1" y1="434.8" x2="172.8" y2="445.6"/>
		<line class="st1" x1="168.9" y1="448.8" x2="175.4" y2="448.8"/>
		<line class="st1" x1="172.8" y1="445.6" x2="172.8" y2="448.8"/>
	</g>
	<g id="boat_1_">
		<polygon class="st1" points="313.1,464.8 307.5,475.6 312.8,475.6 318.1,475.6 		"/>
		<line class="st1" x1="313.1" y1="464.8" x2="312.8" y2="475.6"/>
		<line class="st1" x1="308.9" y1="478.8" x2="315.4" y2="478.8"/>
		<line class="st1" x1="312.8" y1="475.6" x2="312.8" y2="478.8"/>
	</g>
</g>
<g id="outline">
	<circle id="outline_1_" class="st2" cx="246" cy="324.1" r="234.2"/>
</g>
<g id="skydome">
	<path id="roof-top" class="st3" d="M188.1,350.6c0.2,0,0.3-0.2,0.2-0.3c-31.4-36.7-91.7-36-91.7-36s-51.3-4-96,36.3"/>
	<path id="roof-middle" class="st4" d="M176.1,350.6c-25.8-27.7-80-28.4-80-28.4s-45.8-2.1-82.5,28.4"/>
	<rect id="building-bottom" x="0.5" y="350.6" class="st3" width="188" height="28"/>
	<g id="window-frames">
		<rect x="11.7" y="360" class="st4" width="47.1" height="18.6"/>
		<rect x="68.2" y="360" class="st4" width="47.1" height="18.6"/>
		<rect x="124.7" y="360" class="st4" width="47.1" height="18.6"/>
		<line class="st4" x1="27.4" y1="360" x2="27.4" y2="378.6"/>
		<line class="st4" x1="43" y1="360" x2="43" y2="378.6"/>
		<line class="st4" x1="83.4" y1="360" x2="83.4" y2="378.6"/>
		<line class="st4" x1="99" y1="360" x2="99" y2="378.6"/>
		<line class="st4" x1="140.4" y1="360" x2="140.4" y2="378.6"/>
		<line class="st4" x1="156" y1="360" x2="156" y2="378.6"/>
	</g>
	<g id="windows-left">
		<rect x="48.6" y="362.5" class="st5" width="1.5" height="1.5"/>
		<rect x="45.5" y="362.5" class="st5" width="1.5" height="1.5"/>
		<rect x="51.7" y="362.5" class="st5" width="1.5" height="1.5"/>
		<rect x="54.9" y="362.5" class="st5" width="1.5" height="1.5"/>
		<rect x="48.6" y="365.5" class="st5" width="1.5" height="1.5"/>
		<rect x="45.5" y="365.5" class="st5" width="1.5" height="1.5"/>
		<rect x="51.7" y="365.5" class="st5" width="1.5" height="1.5"/>
		<rect x="54.9" y="365.5" class="st5" width="1.5" height="1.5"/>
		<rect x="48.6" y="368.5" class="st5" width="1.5" height="1.5"/>
		<rect x="45.5" y="368.5" class="st5" width="1.5" height="1.5"/>
		<rect x="51.7" y="368.5" class="st5" width="1.5" height="1.5"/>
		<rect x="54.9" y="368.5" class="st5" width="1.5" height="1.5"/>
		<rect x="48.6" y="371.5" class="st5" width="1.5" height="1.5"/>
		<rect x="45.5" y="371.5" class="st5" width="1.5" height="1.5"/>
		<rect x="51.7" y="371.5" class="st5" width="1.5" height="1.5"/>
		<rect x="54.9" y="371.5" class="st5" width="1.5" height="1.5"/>
		<rect x="48.6" y="374.5" class="st5" width="1.5" height="1.5"/>
		<rect x="45.5" y="374.5" class="st5" width="1.5" height="1.5"/>
		<rect x="51.7" y="374.5" class="st5" width="1.5" height="1.5"/>
		<rect x="54.9" y="374.5" class="st5" width="1.5" height="1.5"/>
		<rect x="39.1" y="374.5" class="st5" width="1.5" height="1.5"/>
		<rect x="32.9" y="362.5" class="st5" width="1.5" height="1.5"/>
		<rect x="29.7" y="362.5" class="st5" width="1.5" height="1.5"/>
		<rect x="36" y="362.5" class="st5" width="1.5" height="1.5"/>
		<rect x="39.1" y="362.5" class="st5" width="1.5" height="1.5"/>
		<rect x="32.9" y="365.5" class="st5" width="1.5" height="1.5"/>
		<rect x="29.7" y="365.5" class="st5" width="1.5" height="1.5"/>
		<rect x="36" y="365.5" class="st5" width="1.5" height="1.5"/>
		<rect x="39.1" y="365.5" class="st5" width="1.5" height="1.5"/>
		<rect x="32.9" y="368.5" class="st5" width="1.5" height="1.5"/>
		<rect x="29.7" y="368.5" class="st5" width="1.5" height="1.5"/>
		<rect x="36" y="368.5" class="st5" width="1.5" height="1.5"/>
		<rect x="39.1" y="368.5" class="st5" width="1.5" height="1.5"/>
		<rect x="32.9" y="371.5" class="st5" width="1.5" height="1.5"/>
		<rect x="29.7" y="371.5" class="st5" width="1.5" height="1.5"/>
		<rect x="36" y="371.5" class="st5" width="1.5" height="1.5"/>
		<rect x="39.1" y="371.5" class="st5" width="1.5" height="1.5"/>
		<rect x="32.9" y="374.5" class="st5" width="1.5" height="1.5"/>
		<rect x="29.7" y="374.5" class="st5" width="1.5" height="1.5"/>
		<rect x="36" y="374.5" class="st5" width="1.5" height="1.5"/>
		<rect x="17.2" y="362.5" class="st5" width="1.5" height="1.5"/>
		<rect x="14.1" y="362.5" class="st5" width="1.5" height="1.5"/>
		<rect x="20.4" y="362.5" class="st5" width="1.5" height="1.5"/>
		<rect x="23.5" y="362.5" class="st5" width="1.5" height="1.5"/>
		<rect x="17.2" y="365.5" class="st5" width="1.5" height="1.5"/>
		<rect x="14.1" y="365.5" class="st5" width="1.5" height="1.5"/>
		<rect x="20.4" y="365.5" class="st5" width="1.5" height="1.5"/>
		<rect x="23.5" y="365.5" class="st5" width="1.5" height="1.5"/>
		<rect x="17.2" y="368.5" class="st5" width="1.5" height="1.5"/>
		<rect x="14.1" y="368.5" class="st5" width="1.5" height="1.5"/>
		<rect x="20.4" y="368.5" class="st5" width="1.5" height="1.5"/>
		<rect x="23.5" y="368.5" class="st5" width="1.5" height="1.5"/>
		<rect x="17.2" y="371.5" class="st5" width="1.5" height="1.5"/>
		<rect x="14.1" y="371.5" class="st5" width="1.5" height="1.5"/>
		<rect x="20.4" y="371.5" class="st5" width="1.5" height="1.5"/>
		<rect x="23.5" y="371.5" class="st5" width="1.5" height="1.5"/>
		<rect x="17.2" y="374.5" class="st5" width="1.5" height="1.5"/>
		<rect x="14.1" y="374.5" class="st5" width="1.5" height="1.5"/>
		<rect x="20.4" y="374.5" class="st5" width="1.5" height="1.5"/>
		<rect x="23.5" y="374.5" class="st5" width="1.5" height="1.5"/>
	</g>
	<g id="windows-center">
		<rect x="105" y="362.5" class="st5" width="1.5" height="1.5"/>
		<rect x="101.9" y="362.5" class="st5" width="1.5" height="1.5"/>
		<rect x="108.1" y="362.5" class="st5" width="1.5" height="1.5"/>
		<rect x="111.3" y="362.5" class="st5" width="1.5" height="1.5"/>
		<rect x="105" y="365.5" class="st5" width="1.5" height="1.5"/>
		<rect x="101.9" y="365.5" class="st5" width="1.5" height="1.5"/>
		<rect x="108.1" y="365.5" class="st5" width="1.5" height="1.5"/>
		<rect x="111.3" y="365.5" class="st5" width="1.5" height="1.5"/>
		<rect x="105" y="368.5" class="st5" width="1.5" height="1.5"/>
		<rect x="101.9" y="368.5" class="st5" width="1.5" height="1.5"/>
		<rect x="108.1" y="368.5" class="st5" width="1.5" height="1.5"/>
		<rect x="111.3" y="368.5" class="st5" width="1.5" height="1.5"/>
		<rect x="105" y="371.5" class="st5" width="1.5" height="1.5"/>
		<rect x="101.9" y="371.5" class="st5" width="1.5" height="1.5"/>
		<rect x="108.1" y="371.5" class="st5" width="1.5" height="1.5"/>
		<rect x="111.3" y="371.5" class="st5" width="1.5" height="1.5"/>
		<rect x="105" y="374.5" class="st5" width="1.5" height="1.5"/>
		<rect x="101.9" y="374.5" class="st5" width="1.5" height="1.5"/>
		<rect x="108.1" y="374.5" class="st5" width="1.5" height="1.5"/>
		<rect x="111.3" y="374.5" class="st5" width="1.5" height="1.5"/>
		<rect x="95.5" y="374.5" class="st5" width="1.5" height="1.5"/>
		<rect x="89.2" y="362.5" class="st5" width="1.5" height="1.5"/>
		<rect x="86.1" y="362.5" class="st5" width="1.5" height="1.5"/>
		<rect x="92.4" y="362.5" class="st5" width="1.5" height="1.5"/>
		<rect x="95.5" y="362.5" class="st5" width="1.5" height="1.5"/>
		<rect x="89.2" y="365.5" class="st5" width="1.5" height="1.5"/>
		<rect x="86.1" y="365.5" class="st5" width="1.5" height="1.5"/>
		<rect x="92.4" y="365.5" class="st5" width="1.5" height="1.5"/>
		<rect x="95.5" y="365.5" class="st5" width="1.5" height="1.5"/>
		<rect x="89.2" y="368.5" class="st5" width="1.5" height="1.5"/>
		<rect x="86.1" y="368.5" class="st5" width="1.5" height="1.5"/>
		<rect x="92.4" y="368.5" class="st5" width="1.5" height="1.5"/>
		<rect x="95.5" y="368.5" class="st5" width="1.5" height="1.5"/>
		<rect x="89.2" y="371.5" class="st5" width="1.5" height="1.5"/>
		<rect x="86.1" y="371.5" class="st5" width="1.5" height="1.5"/>
		<rect x="92.4" y="371.5" class="st5" width="1.5" height="1.5"/>
		<rect x="95.5" y="371.5" class="st5" width="1.5" height="1.5"/>
		<rect x="89.2" y="374.5" class="st5" width="1.5" height="1.5"/>
		<rect x="86.1" y="374.5" class="st5" width="1.5" height="1.5"/>
		<rect x="92.4" y="374.5" class="st5" width="1.5" height="1.5"/>
		<rect x="73.6" y="362.5" class="st5" width="1.5" height="1.5"/>
		<rect x="70.5" y="362.5" class="st5" width="1.5" height="1.5"/>
		<rect x="76.7" y="362.5" class="st5" width="1.5" height="1.5"/>
		<rect x="79.9" y="362.5" class="st5" width="1.5" height="1.5"/>
		<rect x="73.6" y="365.5" class="st5" width="1.5" height="1.5"/>
		<rect x="70.5" y="365.5" class="st5" width="1.5" height="1.5"/>
		<rect x="76.7" y="365.5" class="st5" width="1.5" height="1.5"/>
		<rect x="79.9" y="365.5" class="st5" width="1.5" height="1.5"/>
		<rect x="73.6" y="368.5" class="st5" width="1.5" height="1.5"/>
		<rect x="70.5" y="368.5" class="st5" width="1.5" height="1.5"/>
		<rect x="76.7" y="368.5" class="st5" width="1.5" height="1.5"/>
		<rect x="79.9" y="368.5" class="st5" width="1.5" height="1.5"/>
		<rect x="73.6" y="371.5" class="st5" width="1.5" height="1.5"/>
		<rect x="70.5" y="371.5" class="st5" width="1.5" height="1.5"/>
		<rect x="76.7" y="371.5" class="st5" width="1.5" height="1.5"/>
		<rect x="79.9" y="371.5" class="st5" width="1.5" height="1.5"/>
		<rect x="73.6" y="374.5" class="st5" width="1.5" height="1.5"/>
		<rect x="70.5" y="374.5" class="st5" width="1.5" height="1.5"/>
		<rect x="76.7" y="374.5" class="st5" width="1.5" height="1.5"/>
		<rect x="79.9" y="374.5" class="st5" width="1.5" height="1.5"/>
	</g>
	<g id="windows-right">
		<rect x="161.7" y="362.5" class="st5" width="1.5" height="1.5"/>
		<rect x="158.6" y="362.5" class="st5" width="1.5" height="1.5"/>
		<rect x="164.8" y="362.5" class="st5" width="1.5" height="1.5"/>
		<rect x="168" y="362.5" class="st5" width="1.5" height="1.5"/>
		<rect x="161.7" y="365.5" class="st5" width="1.5" height="1.5"/>
		<rect x="158.6" y="365.5" class="st5" width="1.5" height="1.5"/>
		<rect x="164.8" y="365.5" class="st5" width="1.5" height="1.5"/>
		<rect x="168" y="365.5" class="st5" width="1.5" height="1.5"/>
		<rect x="161.7" y="368.5" class="st5" width="1.5" height="1.5"/>
		<rect x="158.6" y="368.5" class="st5" width="1.5" height="1.5"/>
		<rect x="164.8" y="368.5" class="st5" width="1.5" height="1.5"/>
		<rect x="168" y="368.5" class="st5" width="1.5" height="1.5"/>
		<rect x="161.7" y="371.5" class="st5" width="1.5" height="1.5"/>
		<rect x="158.6" y="371.5" class="st5" width="1.5" height="1.5"/>
		<rect x="164.8" y="371.5" class="st5" width="1.5" height="1.5"/>
		<rect x="168" y="371.5" class="st5" width="1.5" height="1.5"/>
		<rect x="161.7" y="374.5" class="st5" width="1.5" height="1.5"/>
		<rect x="158.6" y="374.5" class="st5" width="1.5" height="1.5"/>
		<rect x="164.8" y="374.5" class="st5" width="1.5" height="1.5"/>
		<rect x="168" y="374.5" class="st5" width="1.5" height="1.5"/>
		<rect x="152.2" y="374.5" class="st5" width="1.5" height="1.5"/>
		<rect x="145.9" y="362.5" class="st5" width="1.5" height="1.5"/>
		<rect x="142.8" y="362.5" class="st5" width="1.5" height="1.5"/>
		<rect x="149.1" y="362.5" class="st5" width="1.5" height="1.5"/>
		<rect x="152.2" y="362.5" class="st5" width="1.5" height="1.5"/>
		<rect x="145.9" y="365.5" class="st5" width="1.5" height="1.5"/>
		<rect x="142.8" y="365.5" class="st5" width="1.5" height="1.5"/>
		<rect x="149.1" y="365.5" class="st5" width="1.5" height="1.5"/>
		<rect x="152.2" y="365.5" class="st5" width="1.5" height="1.5"/>
		<rect x="145.9" y="368.5" class="st5" width="1.5" height="1.5"/>
		<rect x="142.8" y="368.5" class="st5" width="1.5" height="1.5"/>
		<rect x="149.1" y="368.5" class="st5" width="1.5" height="1.5"/>
		<rect x="152.2" y="368.5" class="st5" width="1.5" height="1.5"/>
		<rect x="145.9" y="371.5" class="st5" width="1.5" height="1.5"/>
		<rect x="142.8" y="371.5" class="st5" width="1.5" height="1.5"/>
		<rect x="149.1" y="371.5" class="st5" width="1.5" height="1.5"/>
		<rect x="152.2" y="371.5" class="st5" width="1.5" height="1.5"/>
		<rect x="145.9" y="374.5" class="st5" width="1.5" height="1.5"/>
		<rect x="142.8" y="374.5" class="st5" width="1.5" height="1.5"/>
		<rect x="149.1" y="374.5" class="st5" width="1.5" height="1.5"/>
		<rect x="130.3" y="362.5" class="st5" width="1.5" height="1.5"/>
		<rect x="127.2" y="362.5" class="st5" width="1.5" height="1.5"/>
		<rect x="133.5" y="362.5" class="st5" width="1.5" height="1.5"/>
		<rect x="136.6" y="362.5" class="st5" width="1.5" height="1.5"/>
		<rect x="130.3" y="365.5" class="st5" width="1.5" height="1.5"/>
		<rect x="127.2" y="365.5" class="st5" width="1.5" height="1.5"/>
		<rect x="133.5" y="365.5" class="st5" width="1.5" height="1.5"/>
		<rect x="136.6" y="365.5" class="st5" width="1.5" height="1.5"/>
		<rect x="130.3" y="368.5" class="st5" width="1.5" height="1.5"/>
		<rect x="127.2" y="368.5" class="st5" width="1.5" height="1.5"/>
		<rect x="133.5" y="368.5" class="st5" width="1.5" height="1.5"/>
		<rect x="136.6" y="368.5" class="st5" width="1.5" height="1.5"/>
		<rect x="130.3" y="371.5" class="st5" width="1.5" height="1.5"/>
		<rect x="127.2" y="371.5" class="st5" width="1.5" height="1.5"/>
		<rect x="133.5" y="371.5" class="st5" width="1.5" height="1.5"/>
		<rect x="136.6" y="371.5" class="st5" width="1.5" height="1.5"/>
		<rect x="130.3" y="374.5" class="st5" width="1.5" height="1.5"/>
		<rect x="127.2" y="374.5" class="st5" width="1.5" height="1.5"/>
		<rect x="133.5" y="374.5" class="st5" width="1.5" height="1.5"/>
		<rect x="136.6" y="374.5" class="st5" width="1.5" height="1.5"/>
	</g>
</g>
<g id="cntower">
	<ellipse class="st4" cx="247.1" cy="83.1" rx="7.1" ry="2.3"/>
	<rect x="242.6" y="84.9" class="st6" width="8.7" height="42.2"/>
	<path class="st4" d="M258.7,130.4c0-2.6-5.2-4.7-11.7-4.7c-6.5,0-11.7,2.1-11.7,4.7c0,5.6,5.2,4.7,11.7,4.7
		C253.4,135.1,258.7,135.2,258.7,130.4z"/>
	<path class="st6" d="M263.8,145.4c0,7.3-7.6,13.2-16.9,13.2c-9.3,0-16.9-5.9-16.9-13.2c0-7.3,3.5-15.7,16.7-15.7
		C260.3,129.7,263.8,138.1,263.8,145.4z"/>
	<ellipse class="st4" cx="247" cy="153" rx="16.9" ry="5.3"/>
	<path class="st7" d="M260.3,155.4c0,2.1-6,3.2-13.4,3.2s-13.4-1.2-13.4-3.2c0-2.1,6-3.8,13.4-3.8S260.3,153.3,260.3,155.4z"/>
	<rect x="244" y="38.8" class="st4" width="5.9" height="40"/>
	<path class="st4" d="M243.9,76.6c0,0-4.3,2.8-3.9,6.5h14.3c0,0-0.2-3.6-4.1-6.5H243.9z"/>
	<path class="st6" d="M252.3,155.1c-3,54.2,6.2,223.4,6.2,223.4h-25.7c8.5-108.7,9-223.4,9-223.4s2.3-1.3,5.4-1.2
		C250.4,154.1,252.3,155.1,252.3,155.1z"/>
	<path class="st8" d="M229.3,138.2c0-0.1,0-0.1,0.1-0.2c0.6-0.5,4.9-3.3,17.6-3.3c12.6,0,17.1,2.9,17.6,3.3c0,0,0.1,0.1,0.1,0.1v7.3
		c0,0.2-0.1,0.3-0.3,0.2c-1.3-0.7-7.6-3.3-17.6-3.3c-10,0-15.9,2.6-17.2,3.3c-0.2,0.1-0.3,0-0.3-0.2V138.2z"/>
	<path class="st4" d="M250.6,85.3"/>
	<path class="st4" d="M247.1,82.3"/>
	<rect x="245.4" y="25.4" class="st4" width="3.2" height="13.3"/>
	<rect x="245.8" y="10.2" class="st4" width="2.3" height="15.2"/>
	<rect x="246.6" y="0.5" class="st9" width="0.7" height="9.8"/>
	<path class="st10" d="M248.9,154.1c0.1,0,0.2,0.1,0.2,0.2L249,378.6h-4.2V154.3c0-0.1,0.1-0.2,0.2-0.2
		C245,154.1,246.8,153.7,248.9,154.1z"/>
	<g id="window_dividers">
		<line class="st11" x1="245.3" y1="159.5" x2="248.5" y2="159.5"/>
		<line class="st11" x1="245.3" y1="164.5" x2="248.5" y2="164.5"/>
		<line class="st11" x1="245.3" y1="169.5" x2="248.5" y2="169.5"/>
		<line class="st11" x1="245.3" y1="174.5" x2="248.5" y2="174.5"/>
		<line class="st11" x1="245.3" y1="179.5" x2="248.5" y2="179.5"/>
		<line class="st11" x1="245.3" y1="184.5" x2="248.5" y2="184.5"/>
		<line class="st11" x1="245.3" y1="189.5" x2="248.5" y2="189.5"/>
		<line class="st11" x1="245.3" y1="194.5" x2="248.5" y2="194.5"/>
		<line class="st11" x1="245.3" y1="199.5" x2="248.5" y2="199.5"/>
		<line class="st11" x1="245.3" y1="204.5" x2="248.5" y2="204.5"/>
		<line class="st11" x1="245.3" y1="209.5" x2="248.5" y2="209.5"/>
		<line class="st11" x1="245.3" y1="214.5" x2="248.5" y2="214.5"/>
		<line class="st11" x1="245.3" y1="219.5" x2="248.5" y2="219.5"/>
		<line class="st11" x1="245.3" y1="224.5" x2="248.5" y2="224.5"/>
		<line class="st11" x1="245.3" y1="229.5" x2="248.5" y2="229.5"/>
		<line class="st11" x1="245.3" y1="234.5" x2="248.5" y2="234.5"/>
		<line class="st11" x1="245.3" y1="239.5" x2="248.5" y2="239.5"/>
		<line class="st11" x1="245.3" y1="244.5" x2="248.5" y2="244.5"/>
		<line class="st11" x1="245.3" y1="249.5" x2="248.5" y2="249.5"/>
		<line class="st11" x1="245.3" y1="254.5" x2="248.5" y2="254.5"/>
		<line class="st11" x1="245.3" y1="259.5" x2="248.5" y2="259.5"/>
		<line class="st11" x1="245.3" y1="264.5" x2="248.5" y2="264.5"/>
		<line class="st11" x1="245.3" y1="269.5" x2="248.5" y2="269.5"/>
		<line class="st11" x1="245.3" y1="274.5" x2="248.5" y2="274.5"/>
		<line class="st11" x1="245.3" y1="279.5" x2="248.5" y2="279.5"/>
		<line class="st11" x1="245.3" y1="284.5" x2="248.5" y2="284.5"/>
		<line class="st11" x1="245.3" y1="289.5" x2="248.5" y2="289.5"/>
		<line class="st11" x1="245.3" y1="294.5" x2="248.5" y2="294.5"/>
		<line class="st11" x1="245.3" y1="299.5" x2="248.5" y2="299.5"/>
		<line class="st11" x1="245.3" y1="304.5" x2="248.5" y2="304.5"/>
		<line class="st11" x1="245.3" y1="309.5" x2="248.5" y2="309.5"/>
		<line class="st11" x1="245.3" y1="314.5" x2="248.5" y2="314.5"/>
		<line class="st11" x1="245.3" y1="319.5" x2="248.5" y2="319.5"/>
		<line class="st11" x1="245.3" y1="324.5" x2="248.5" y2="324.5"/>
		<line class="st11" x1="245.3" y1="329.5" x2="248.5" y2="329.5"/>
		<line class="st11" x1="245.3" y1="334.5" x2="248.5" y2="334.5"/>
		<line class="st11" x1="245.3" y1="339.5" x2="248.5" y2="339.5"/>
		<line class="st11" x1="245.3" y1="344.5" x2="248.5" y2="344.5"/>
		<line class="st11" x1="245.3" y1="349.5" x2="248.5" y2="349.5"/>
		<line class="st11" x1="245.3" y1="354.5" x2="248.5" y2="354.5"/>
		<line class="st11" x1="245.3" y1="359.5" x2="248.5" y2="359.5"/>
		<line class="st11" x1="245.3" y1="364.5" x2="248.5" y2="364.5"/>
		<line class="st11" x1="245.3" y1="369.5" x2="248.5" y2="369.5"/>
		<line class="st11" x1="245.3" y1="374.5" x2="248.5" y2="374.5"/>
	</g>
	<g id="main_windows">
		<line class="st12" x1="246.8" y1="141.8" x2="246.8" y2="135.2"/>
		<line class="st12" x1="241.8" y1="142.1" x2="241.8" y2="135.4"/>
		<line class="st12" x1="236.8" y1="142.8" x2="236.8" y2="136"/>
		<line class="st12" x1="231.8" y1="144.2" x2="231.8" y2="137.3"/>
		<line class="st12" x1="251.8" y1="142.1" x2="251.8" y2="135.4"/>
		<line class="st12" x1="256.8" y1="142.7" x2="256.8" y2="136"/>
		<line class="st12" x1="261.8" y1="144" x2="261.8" y2="137.2"/>
	</g>
</g>
<g id="building-1">
	<rect x="180.9" y="306.9" class="st6" width="39.6" height="71.7"/>
	<g id="windows">
		<line class="st13" x1="187.5" y1="311.4" x2="187.5" y2="374.5"/>
		<line class="st13" x1="194.1" y1="311.4" x2="194.1" y2="374.5"/>
		<line class="st13" x1="207.3" y1="311.4" x2="207.3" y2="374.5"/>
		<line class="st13" x1="213.9" y1="311.4" x2="213.9" y2="374.5"/>
		<line class="st13" x1="200.7" y1="311.4" x2="200.7" y2="374.5"/>
	</g>
</g>
<g id="building-2">
	<rect x="209.3" y="330.2" class="st14" width="29.3" height="48.3"/>
	<rect x="206.7" y="330.2" class="st4" width="9.9" height="48.3"/>
	<g id="building_left_windows">
		<line class="st15" x1="220.5" y1="334.5" x2="235.2" y2="334.5"/>
		<line class="st15" x1="220.5" y1="338.5" x2="235.2" y2="338.5"/>
		<line class="st15" x1="220.5" y1="342.5" x2="235.2" y2="342.5"/>
		<line class="st15" x1="220.5" y1="346.5" x2="235.2" y2="346.5"/>
		<line class="st15" x1="220.5" y1="350.5" x2="235.2" y2="350.5"/>
		<line class="st15" x1="220.5" y1="354.5" x2="235.2" y2="354.5"/>
		<line class="st15" x1="220.5" y1="358.5" x2="235.2" y2="358.5"/>
		<line class="st15" x1="220.5" y1="362.5" x2="235.2" y2="362.5"/>
		<line class="st15" x1="220.5" y1="366.5" x2="235.2" y2="366.5"/>
		<line class="st15" x1="220.5" y1="370.5" x2="235.2" y2="370.5"/>
		<line class="st15" x1="220.5" y1="374.5" x2="235.2" y2="374.5"/>
	</g>
	<g id="building_left_windows_1_">
		<line class="st15" x1="209.2" y1="334.5" x2="214.2" y2="334.5"/>
		<line class="st15" x1="209.2" y1="338.5" x2="214.2" y2="338.5"/>
		<line class="st15" x1="209.2" y1="342.5" x2="214.2" y2="342.5"/>
		<line class="st15" x1="209.2" y1="346.5" x2="214.2" y2="346.5"/>
		<line class="st15" x1="209.2" y1="350.5" x2="214.2" y2="350.5"/>
		<line class="st15" x1="209.2" y1="354.5" x2="214.2" y2="354.5"/>
		<line class="st15" x1="209.2" y1="358.5" x2="214.2" y2="358.5"/>
		<line class="st15" x1="209.2" y1="362.5" x2="214.2" y2="362.5"/>
		<line class="st15" x1="209.2" y1="366.5" x2="214.2" y2="366.5"/>
		<line class="st15" x1="209.2" y1="370.5" x2="214.2" y2="370.5"/>
		<line class="st15" x1="209.2" y1="374.5" x2="214.2" y2="374.5"/>
	</g>
</g>
<g id="building-4">
	<rect x="272.6" y="298" class="st6" width="31.7" height="80.5"/>
	<g id="windows_1_">
		<line class="st16" x1="277.2" y1="303.1" x2="300" y2="303.1"/>
		<line class="st16" x1="277.2" y1="307.1" x2="300" y2="307.1"/>
		<line class="st16" x1="277.2" y1="311.1" x2="300" y2="311.1"/>
		<line class="st16" x1="277.2" y1="315.1" x2="300" y2="315.1"/>
		<line class="st16" x1="277.2" y1="319.1" x2="300" y2="319.1"/>
		<line class="st16" x1="277.2" y1="323.1" x2="300" y2="323.1"/>
		<line class="st16" x1="277.2" y1="327.1" x2="300" y2="327.1"/>
		<line class="st16" x1="277.2" y1="331.1" x2="300" y2="331.1"/>
		<line class="st16" x1="277.2" y1="335.1" x2="300" y2="335.1"/>
		<line class="st16" x1="277.2" y1="339.1" x2="300" y2="339.1"/>
		<line class="st16" x1="277.2" y1="343.1" x2="300" y2="343.1"/>
		<line class="st16" x1="277.2" y1="347.1" x2="300" y2="347.1"/>
		<line class="st16" x1="277.2" y1="351.1" x2="300" y2="351.1"/>
		<line class="st16" x1="277.2" y1="355.1" x2="300" y2="355.1"/>
		<line class="st16" x1="277.2" y1="359.1" x2="300" y2="359.1"/>
		<line class="st16" x1="277.2" y1="363.1" x2="300" y2="363.1"/>
		<line class="st16" x1="277.2" y1="367.1" x2="300" y2="367.1"/>
		<line class="st16" x1="277.2" y1="371.1" x2="300" y2="371.1"/>
	</g>
</g>
<g id="building-3">
	<rect x="255.3" y="319.1" class="st3" width="27" height="59.4"/>
	<g id="windows_2_">
		<rect x="268.1" y="328.5" class="st5" width="1.5" height="1.5"/>
		<rect x="261.9" y="322.5" class="st5" width="1.5" height="1.5"/>
		<rect x="258.7" y="322.5" class="st5" width="1.5" height="1.5"/>
		<rect x="265" y="322.5" class="st5" width="1.5" height="1.5"/>
		<rect x="268.1" y="322.5" class="st5" width="1.5" height="1.5"/>
		<rect x="261.9" y="325.5" class="st5" width="1.5" height="1.5"/>
		<rect x="258.7" y="325.5" class="st5" width="1.5" height="1.5"/>
		<rect x="265" y="325.5" class="st5" width="1.5" height="1.5"/>
		<rect x="268.1" y="325.5" class="st5" width="1.5" height="1.5"/>
		<rect x="261.9" y="328.5" class="st5" width="1.5" height="1.5"/>
		<rect x="258.7" y="328.5" class="st5" width="1.5" height="1.5"/>
		<rect x="265" y="328.5" class="st5" width="1.5" height="1.5"/>
		<rect x="268.1" y="343.5" class="st5" width="1.5" height="1.5"/>
		<rect x="261.9" y="331.5" class="st5" width="1.5" height="1.5"/>
		<rect x="258.7" y="331.5" class="st5" width="1.5" height="1.5"/>
		<rect x="265" y="331.5" class="st5" width="1.5" height="1.5"/>
		<rect x="268.1" y="331.5" class="st5" width="1.5" height="1.5"/>
		<rect x="261.9" y="334.5" class="st5" width="1.5" height="1.5"/>
		<rect x="258.7" y="334.5" class="st5" width="1.5" height="1.5"/>
		<rect x="265" y="334.5" class="st5" width="1.5" height="1.5"/>
		<rect x="268.1" y="334.5" class="st5" width="1.5" height="1.5"/>
		<rect x="261.9" y="337.5" class="st5" width="1.5" height="1.5"/>
		<rect x="258.7" y="337.5" class="st5" width="1.5" height="1.5"/>
		<rect x="265" y="337.5" class="st5" width="1.5" height="1.5"/>
		<rect x="268.1" y="337.5" class="st5" width="1.5" height="1.5"/>
		<rect x="261.9" y="340.5" class="st5" width="1.5" height="1.5"/>
		<rect x="258.7" y="340.5" class="st5" width="1.5" height="1.5"/>
		<rect x="265" y="340.5" class="st5" width="1.5" height="1.5"/>
		<rect x="268.1" y="340.5" class="st5" width="1.5" height="1.5"/>
		<rect x="261.9" y="343.5" class="st5" width="1.5" height="1.5"/>
		<rect x="258.7" y="343.5" class="st5" width="1.5" height="1.5"/>
		<rect x="265" y="343.5" class="st5" width="1.5" height="1.5"/>
		<rect x="268.1" y="358.5" class="st5" width="1.5" height="1.5"/>
		<rect x="265.1" y="358.5" class="st5" width="1.5" height="1.5"/>
		<rect x="261.9" y="346.5" class="st5" width="1.5" height="1.5"/>
		<rect x="258.7" y="346.5" class="st5" width="1.5" height="1.5"/>
		<rect x="265" y="346.5" class="st5" width="1.5" height="1.5"/>
		<rect x="268.1" y="346.5" class="st5" width="1.5" height="1.5"/>
		<rect x="261.9" y="349.5" class="st5" width="1.5" height="1.5"/>
		<rect x="258.7" y="349.5" class="st5" width="1.5" height="1.5"/>
		<rect x="265" y="349.5" class="st5" width="1.5" height="1.5"/>
		<rect x="268.1" y="349.5" class="st5" width="1.5" height="1.5"/>
		<rect x="261.9" y="352.5" class="st5" width="1.5" height="1.5"/>
		<rect x="258.7" y="352.5" class="st5" width="1.5" height="1.5"/>
		<rect x="265" y="352.5" class="st5" width="1.5" height="1.5"/>
		<rect x="268.1" y="352.5" class="st5" width="1.5" height="1.5"/>
		<rect x="261.9" y="355.5" class="st5" width="1.5" height="1.5"/>
		<rect x="258.7" y="355.5" class="st5" width="1.5" height="1.5"/>
		<rect x="265" y="355.5" class="st5" width="1.5" height="1.5"/>
		<rect x="268.1" y="355.5" class="st5" width="1.5" height="1.5"/>
		<rect x="261.9" y="358.5" class="st5" width="1.5" height="1.5"/>
		<rect x="258.7" y="358.5" class="st5" width="1.5" height="1.5"/>
		<rect x="261.9" y="361.5" class="st5" width="1.5" height="1.5"/>
		<rect x="258.7" y="361.5" class="st5" width="1.5" height="1.5"/>
		<rect x="265" y="361.5" class="st5" width="1.5" height="1.5"/>
		<rect x="268.1" y="361.5" class="st5" width="1.5" height="1.5"/>
		<rect x="261.9" y="364.5" class="st5" width="1.5" height="1.5"/>
		<rect x="258.7" y="364.5" class="st5" width="1.5" height="1.5"/>
		<rect x="265" y="364.5" class="st5" width="1.5" height="1.5"/>
		<rect x="268.1" y="364.5" class="st5" width="1.5" height="1.5"/>
		<rect x="274.3" y="322.5" class="st5" width="1.5" height="1.5"/>
		<rect x="271.1" y="322.5" class="st5" width="1.5" height="1.5"/>
		<rect x="277.4" y="322.5" class="st5" width="1.5" height="1.5"/>
		<rect x="274.3" y="325.5" class="st5" width="1.5" height="1.5"/>
		<rect x="271.1" y="325.5" class="st5" width="1.5" height="1.5"/>
		<rect x="277.4" y="325.5" class="st5" width="1.5" height="1.5"/>
		<rect x="274.3" y="328.5" class="st5" width="1.5" height="1.5"/>
		<rect x="271.1" y="328.5" class="st5" width="1.5" height="1.5"/>
		<rect x="277.4" y="328.5" class="st5" width="1.5" height="1.5"/>
		<rect x="274.3" y="331.5" class="st5" width="1.5" height="1.5"/>
		<rect x="271.1" y="331.5" class="st5" width="1.5" height="1.5"/>
		<rect x="277.4" y="331.5" class="st5" width="1.5" height="1.5"/>
		<rect x="274.3" y="334.5" class="st5" width="1.5" height="1.5"/>
		<rect x="271.1" y="334.5" class="st5" width="1.5" height="1.5"/>
		<rect x="277.4" y="334.5" class="st5" width="1.5" height="1.5"/>
		<rect x="274.3" y="337.5" class="st5" width="1.5" height="1.5"/>
		<rect x="271.1" y="337.5" class="st5" width="1.5" height="1.5"/>
		<rect x="277.4" y="337.5" class="st5" width="1.5" height="1.5"/>
		<rect x="274.3" y="340.5" class="st5" width="1.5" height="1.5"/>
		<rect x="271.1" y="340.5" class="st5" width="1.5" height="1.5"/>
		<rect x="277.4" y="340.5" class="st5" width="1.5" height="1.5"/>
		<rect x="274.3" y="343.5" class="st5" width="1.5" height="1.5"/>
		<rect x="271.1" y="343.5" class="st5" width="1.5" height="1.5"/>
		<rect x="277.4" y="343.5" class="st5" width="1.5" height="1.5"/>
		<rect x="274.3" y="346.5" class="st5" width="1.5" height="1.5"/>
		<rect x="271.1" y="346.5" class="st5" width="1.5" height="1.5"/>
		<rect x="277.4" y="346.5" class="st5" width="1.5" height="1.5"/>
		<rect x="274.3" y="349.5" class="st5" width="1.5" height="1.5"/>
		<rect x="271.1" y="349.5" class="st5" width="1.5" height="1.5"/>
		<rect x="277.4" y="349.5" class="st5" width="1.5" height="1.5"/>
		<rect x="274.3" y="352.5" class="st5" width="1.5" height="1.5"/>
		<rect x="271.1" y="352.5" class="st5" width="1.5" height="1.5"/>
		<rect x="277.4" y="352.5" class="st5" width="1.5" height="1.5"/>
		<rect x="274.3" y="355.5" class="st5" width="1.5" height="1.5"/>
		<rect x="271.1" y="355.5" class="st5" width="1.5" height="1.5"/>
		<rect x="277.4" y="355.5" class="st5" width="1.5" height="1.5"/>
		<rect x="274.3" y="358.5" class="st5" width="1.5" height="1.5"/>
		<rect x="277.3" y="358.5" class="st5" width="1.5" height="1.5"/>
		<rect x="271.1" y="358.5" class="st5" width="1.5" height="1.5"/>
		<rect x="274.3" y="361.5" class="st5" width="1.5" height="1.5"/>
		<rect x="271.1" y="361.5" class="st5" width="1.5" height="1.5"/>
		<rect x="277.4" y="361.5" class="st5" width="1.5" height="1.5"/>
		<rect x="274.3" y="364.5" class="st5" width="1.5" height="1.5"/>
		<rect x="271.1" y="364.5" class="st5" width="1.5" height="1.5"/>
		<rect x="277.4" y="364.5" class="st5" width="1.5" height="1.5"/>
		<rect x="268.1" y="370.5" class="st5" width="1.5" height="1.5"/>
		<rect x="265.1" y="370.5" class="st5" width="1.5" height="1.5"/>
		<rect x="261.9" y="367.5" class="st5" width="1.5" height="1.5"/>
		<rect x="258.7" y="367.5" class="st5" width="1.5" height="1.5"/>
		<rect x="265" y="367.5" class="st5" width="1.5" height="1.5"/>
		<rect x="268.1" y="367.5" class="st5" width="1.5" height="1.5"/>
		<rect x="261.9" y="370.5" class="st5" width="1.5" height="1.5"/>
		<rect x="258.7" y="370.5" class="st5" width="1.5" height="1.5"/>
		<rect x="261.9" y="373.5" class="st5" width="1.5" height="1.5"/>
		<rect x="258.7" y="373.5" class="st5" width="1.5" height="1.5"/>
		<rect x="265" y="373.5" class="st5" width="1.5" height="1.5"/>
		<rect x="268.1" y="373.5" class="st5" width="1.5" height="1.5"/>
		<rect x="274.3" y="367.5" class="st5" width="1.5" height="1.5"/>
		<rect x="271.1" y="367.5" class="st5" width="1.5" height="1.5"/>
		<rect x="277.4" y="367.5" class="st5" width="1.5" height="1.5"/>
		<rect x="274.3" y="370.5" class="st5" width="1.5" height="1.5"/>
		<rect x="277.3" y="370.5" class="st5" width="1.5" height="1.5"/>
		<rect x="271.1" y="370.5" class="st5" width="1.5" height="1.5"/>
		<rect x="274.3" y="373.5" class="st5" width="1.5" height="1.5"/>
		<rect x="271.1" y="373.5" class="st5" width="1.5" height="1.5"/>
		<rect x="277.4" y="373.5" class="st5" width="1.5" height="1.5"/>
	</g>
</g>
<g id="building-5">
	<rect id="building" x="363.6" y="334.9" class="st6" width="30.3" height="43.6"/>
	<g id="windows_3_">
		<line class="st16" x1="368" y1="339.1" x2="368" y2="375.1"/>
		<line class="st16" x1="372.4" y1="339.1" x2="372.4" y2="375.1"/>
		<line class="st16" x1="376.7" y1="339.1" x2="376.7" y2="375.1"/>
		<line class="st16" x1="381" y1="339.1" x2="381" y2="375.1"/>
		<line class="st16" x1="385.3" y1="339.1" x2="385.3" y2="375.1"/>
		<line class="st16" x1="389.6" y1="339.1" x2="389.6" y2="375.1"/>
	</g>
</g>
<g id="building-6">
	<rect x="394" y="312.2" class="st4" width="12.8" height="66.3"/>
	<rect x="406.8" y="312.2" class="st3" width="30.2" height="66.3"/>
	<g id="windows-right_1_">
		<line class="st15" x1="409.1" y1="315.4" x2="426.1" y2="315.4"/>
		<line class="st15" x1="409.1" y1="318.4" x2="426.1" y2="318.4"/>
		<line class="st15" x1="409.1" y1="321.4" x2="426.1" y2="321.4"/>
		<line class="st15" x1="409.1" y1="324.4" x2="426.1" y2="324.4"/>
		<line class="st15" x1="409.1" y1="327.4" x2="426.1" y2="327.4"/>
		<line class="st15" x1="409.1" y1="330.4" x2="426.1" y2="330.4"/>
		<line class="st15" x1="409.1" y1="333.4" x2="426.1" y2="333.4"/>
		<line class="st15" x1="409.1" y1="336.4" x2="426.1" y2="336.4"/>
		<line class="st15" x1="409.1" y1="339.4" x2="426.1" y2="339.4"/>
		<line class="st15" x1="409.1" y1="342.4" x2="426.1" y2="342.4"/>
		<line class="st15" x1="409.1" y1="345.4" x2="426.1" y2="345.4"/>
		<line class="st15" x1="409.1" y1="348.4" x2="426.1" y2="348.4"/>
		<line class="st15" x1="409.1" y1="351.4" x2="426.1" y2="351.4"/>
		<line class="st15" x1="409.1" y1="354.4" x2="426.1" y2="354.4"/>
		<line class="st15" x1="409.1" y1="357.4" x2="426.1" y2="357.4"/>
		<line class="st15" x1="409.1" y1="360.4" x2="426.1" y2="360.4"/>
		<line class="st15" x1="409.1" y1="363.4" x2="426.1" y2="363.4"/>
		<line class="st15" x1="409.1" y1="366.4" x2="426.1" y2="366.4"/>
		<line class="st15" x1="409.1" y1="369.4" x2="426.1" y2="369.4"/>
		<line class="st15" x1="409.1" y1="372.4" x2="426.1" y2="372.4"/>
		<line class="st15" x1="409.1" y1="375.4" x2="426.1" y2="375.4"/>
	</g>
	<g id="windows-left_1_">
		<line class="st15" x1="395.4" y1="315.4" x2="404.8" y2="315.4"/>
		<line class="st15" x1="395.4" y1="318.4" x2="404.8" y2="318.4"/>
		<line class="st15" x1="395.4" y1="321.4" x2="404.8" y2="321.4"/>
		<line class="st15" x1="395.4" y1="324.4" x2="404.8" y2="324.4"/>
		<line class="st15" x1="395.4" y1="327.4" x2="404.8" y2="327.4"/>
		<line class="st15" x1="395.4" y1="330.4" x2="404.8" y2="330.4"/>
		<line class="st15" x1="395.4" y1="333.4" x2="404.8" y2="333.4"/>
		<line class="st15" x1="395.4" y1="336.4" x2="404.8" y2="336.4"/>
		<line class="st15" x1="395.4" y1="339.4" x2="404.8" y2="339.4"/>
		<line class="st15" x1="395.4" y1="342.4" x2="404.8" y2="342.4"/>
		<line class="st15" x1="395.4" y1="345.4" x2="404.8" y2="345.4"/>
		<line class="st15" x1="395.4" y1="348.4" x2="404.8" y2="348.4"/>
		<line class="st15" x1="395.4" y1="351.4" x2="404.8" y2="351.4"/>
		<line class="st15" x1="395.4" y1="354.4" x2="404.8" y2="354.4"/>
		<line class="st15" x1="395.4" y1="357.4" x2="404.8" y2="357.4"/>
		<line class="st15" x1="395.4" y1="360.4" x2="404.8" y2="360.4"/>
		<line class="st15" x1="395.4" y1="363.4" x2="404.8" y2="363.4"/>
		<line class="st15" x1="395.4" y1="366.4" x2="404.8" y2="366.4"/>
		<line class="st15" x1="395.4" y1="369.4" x2="404.8" y2="369.4"/>
		<line class="st15" x1="395.4" y1="372.4" x2="404.8" y2="372.4"/>
		<line class="st15" x1="395.4" y1="375.4" x2="404.8" y2="375.4"/>
	</g>
</g>
<g id="building-7">
	<rect id="building_1_" x="427.8" y="278.1" class="st4" width="35.8" height="100.5"/>
	<g id="windows_5_">
		<line class="st15" x1="433.3" y1="284.5" x2="433.3" y2="376.1"/>
		<line class="st15" x1="439.5" y1="284.5" x2="439.5" y2="376.1"/>
		<line class="st15" x1="445.7" y1="284.5" x2="445.7" y2="376.1"/>
		<line class="st15" x1="451.9" y1="284.5" x2="451.9" y2="376.1"/>
		<line class="st15" x1="458.2" y1="284.5" x2="458.2" y2="376.1"/>
	</g>
	<line id="antena-large" class="st13" x1="441.9" y1="277.6" x2="441.9" y2="256.2"/>
	<line id="antena-small" class="st13" x1="447.9" y1="277.6" x2="447.9" y2="265.8"/>
</g>
<g id="building-8">
	<rect x="463.6" y="298.4" class="st6" width="30.3" height="80.1"/>
	<g id="windows_6_">
		<line class="st16" x1="467.5" y1="314.6" x2="490.3" y2="314.6"/>
		<line class="st16" x1="467.5" y1="317.6" x2="490.3" y2="317.6"/>
		<line class="st16" x1="467.5" y1="320.6" x2="490.3" y2="320.6"/>
		<line class="st16" x1="467.5" y1="323.6" x2="490.3" y2="323.6"/>
		<line class="st16" x1="467.5" y1="326.6" x2="490.3" y2="326.6"/>
		<line class="st16" x1="467.5" y1="329.6" x2="490.3" y2="329.6"/>
		<line class="st16" x1="467.5" y1="332.6" x2="490.3" y2="332.6"/>
		<line class="st16" x1="467.5" y1="335.6" x2="490.3" y2="335.6"/>
		<line class="st16" x1="467.5" y1="338.6" x2="490.3" y2="338.6"/>
		<line class="st16" x1="467.5" y1="341.6" x2="490.3" y2="341.6"/>
		<line class="st16" x1="467.5" y1="344.6" x2="490.3" y2="344.6"/>
		<line class="st16" x1="467.5" y1="347.6" x2="490.3" y2="347.6"/>
		<line class="st16" x1="467.5" y1="350.6" x2="490.3" y2="350.6"/>
		<line class="st16" x1="467.5" y1="353.6" x2="490.3" y2="353.6"/>
		<line class="st16" x1="467.5" y1="356.6" x2="490.3" y2="356.6"/>
		<line class="st16" x1="467.5" y1="359.6" x2="490.3" y2="359.6"/>
		<line class="st16" x1="467.5" y1="362.6" x2="490.3" y2="362.6"/>
		<line class="st16" x1="467.5" y1="365.6" x2="490.3" y2="365.6"/>
		<line class="st16" x1="467.5" y1="368.6" x2="490.3" y2="368.6"/>
		<line class="st16" x1="467.5" y1="302.6" x2="490.3" y2="302.6"/>
		<line class="st16" x1="467.5" y1="305.6" x2="490.3" y2="305.6"/>
		<line class="st16" x1="467.5" y1="308.6" x2="490.3" y2="308.6"/>
		<line class="st16" x1="467.5" y1="311.6" x2="490.3" y2="311.6"/>
	</g>
</g>
<g id="city-hall">
	<rect x="316.3" y="351.4" class="st3" width="22.3" height="27.2"/>
	<rect x="334.6" y="323.6" class="st3" width="29" height="55"/>
	<rect x="290.3" y="329.6" class="st3" width="28" height="48.9"/>
	<rect x="290.3" y="329.6" class="st4" width="11.4" height="48.9"/>
	<rect x="352.3" y="323.6" class="st4" width="11.4" height="55"/>
	<line class="st15" x1="294.1" y1="333.1" x2="294.1" y2="378.1"/>
	<line class="st15" x1="298.1" y1="333.1" x2="298.1" y2="378.1"/>
	<line class="st15" x1="356.1" y1="327.4" x2="356.1" y2="378"/>
	<line class="st15" x1="360.1" y1="327.4" x2="360.1" y2="378"/>
	<g id="windows_right_1_">
		<rect x="347.6" y="338.6" class="st5" width="1.5" height="1.5"/>
		<rect x="341.4" y="326.6" class="st5" width="1.5" height="1.5"/>
		<rect x="338.2" y="326.6" class="st5" width="1.5" height="1.5"/>
		<rect x="344.5" y="326.6" class="st5" width="1.5" height="1.5"/>
		<rect x="347.6" y="326.6" class="st5" width="1.5" height="1.5"/>
		<rect x="341.4" y="329.6" class="st5" width="1.5" height="1.5"/>
		<rect x="338.2" y="329.6" class="st5" width="1.5" height="1.5"/>
		<rect x="344.5" y="329.6" class="st5" width="1.5" height="1.5"/>
		<rect x="347.6" y="329.6" class="st5" width="1.5" height="1.5"/>
		<rect x="341.4" y="332.6" class="st5" width="1.5" height="1.5"/>
		<rect x="338.2" y="332.6" class="st5" width="1.5" height="1.5"/>
		<rect x="344.5" y="332.6" class="st5" width="1.5" height="1.5"/>
		<rect x="347.6" y="332.6" class="st5" width="1.5" height="1.5"/>
		<rect x="341.4" y="335.6" class="st5" width="1.5" height="1.5"/>
		<rect x="338.2" y="335.6" class="st5" width="1.5" height="1.5"/>
		<rect x="344.5" y="335.6" class="st5" width="1.5" height="1.5"/>
		<rect x="347.6" y="335.6" class="st5" width="1.5" height="1.5"/>
		<rect x="341.4" y="338.6" class="st5" width="1.5" height="1.5"/>
		<rect x="338.2" y="338.6" class="st5" width="1.5" height="1.5"/>
		<rect x="344.5" y="338.6" class="st5" width="1.5" height="1.5"/>
		<rect x="347.6" y="353.6" class="st5" width="1.5" height="1.5"/>
		<rect x="341.4" y="341.6" class="st5" width="1.5" height="1.5"/>
		<rect x="338.2" y="341.6" class="st5" width="1.5" height="1.5"/>
		<rect x="344.5" y="341.6" class="st5" width="1.5" height="1.5"/>
		<rect x="347.6" y="341.6" class="st5" width="1.5" height="1.5"/>
		<rect x="341.4" y="344.6" class="st5" width="1.5" height="1.5"/>
		<rect x="338.2" y="344.6" class="st5" width="1.5" height="1.5"/>
		<rect x="344.5" y="344.6" class="st5" width="1.5" height="1.5"/>
		<rect x="347.6" y="344.6" class="st5" width="1.5" height="1.5"/>
		<rect x="341.4" y="347.6" class="st5" width="1.5" height="1.5"/>
		<rect x="338.2" y="347.6" class="st5" width="1.5" height="1.5"/>
		<rect x="344.5" y="347.6" class="st5" width="1.5" height="1.5"/>
		<rect x="347.6" y="347.6" class="st5" width="1.5" height="1.5"/>
		<rect x="341.4" y="350.6" class="st5" width="1.5" height="1.5"/>
		<rect x="338.2" y="350.6" class="st5" width="1.5" height="1.5"/>
		<rect x="344.5" y="350.6" class="st5" width="1.5" height="1.5"/>
		<rect x="347.6" y="350.6" class="st5" width="1.5" height="1.5"/>
		<rect x="341.4" y="353.6" class="st5" width="1.5" height="1.5"/>
		<rect x="338.2" y="353.6" class="st5" width="1.5" height="1.5"/>
		<rect x="344.5" y="353.6" class="st5" width="1.5" height="1.5"/>
		<rect x="347.6" y="368.6" class="st5" width="1.5" height="1.5"/>
		<rect x="341.4" y="356.6" class="st5" width="1.5" height="1.5"/>
		<rect x="338.2" y="356.6" class="st5" width="1.5" height="1.5"/>
		<rect x="344.5" y="356.6" class="st5" width="1.5" height="1.5"/>
		<rect x="347.6" y="356.6" class="st5" width="1.5" height="1.5"/>
		<rect x="341.4" y="359.6" class="st5" width="1.5" height="1.5"/>
		<rect x="338.2" y="359.6" class="st5" width="1.5" height="1.5"/>
		<rect x="344.5" y="359.6" class="st5" width="1.5" height="1.5"/>
		<rect x="347.6" y="359.6" class="st5" width="1.5" height="1.5"/>
		<rect x="341.4" y="362.6" class="st5" width="1.5" height="1.5"/>
		<rect x="338.2" y="362.6" class="st5" width="1.5" height="1.5"/>
		<rect x="344.5" y="362.6" class="st5" width="1.5" height="1.5"/>
		<rect x="347.6" y="362.6" class="st5" width="1.5" height="1.5"/>
		<rect x="341.4" y="365.6" class="st5" width="1.5" height="1.5"/>
		<rect x="338.2" y="365.6" class="st5" width="1.5" height="1.5"/>
		<rect x="344.5" y="365.6" class="st5" width="1.5" height="1.5"/>
		<rect x="347.6" y="365.6" class="st5" width="1.5" height="1.5"/>
		<rect x="341.4" y="368.6" class="st5" width="1.5" height="1.5"/>
		<rect x="338.2" y="368.6" class="st5" width="1.5" height="1.5"/>
		<rect x="341.4" y="371.6" class="st5" width="1.5" height="1.5"/>
		<rect x="338.2" y="371.6" class="st5" width="1.5" height="1.5"/>
		<rect x="344.5" y="371.6" class="st5" width="1.5" height="1.5"/>
		<rect x="347.6" y="371.6" class="st5" width="1.5" height="1.5"/>
		<rect x="341.4" y="374.6" class="st5" width="1.5" height="1.5"/>
		<rect x="338.2" y="374.6" class="st5" width="1.5" height="1.5"/>
		<rect x="344.5" y="374.6" class="st5" width="1.5" height="1.5"/>
		<rect x="347.6" y="374.6" class="st5" width="1.5" height="1.5"/>
	</g>
	<g id="windows_left">
		<rect x="314.3" y="338.6" class="st5" width="1.5" height="1.5"/>
		<rect x="308" y="332.6" class="st5" width="1.5" height="1.5"/>
		<rect x="304.9" y="332.6" class="st5" width="1.5" height="1.5"/>
		<rect x="311.1" y="332.6" class="st5" width="1.5" height="1.5"/>
		<rect x="314.3" y="332.6" class="st5" width="1.5" height="1.5"/>
		<rect x="308" y="335.6" class="st5" width="1.5" height="1.5"/>
		<rect x="304.9" y="335.6" class="st5" width="1.5" height="1.5"/>
		<rect x="311.1" y="335.6" class="st5" width="1.5" height="1.5"/>
		<rect x="314.3" y="335.6" class="st5" width="1.5" height="1.5"/>
		<rect x="308" y="338.6" class="st5" width="1.5" height="1.5"/>
		<rect x="304.9" y="338.6" class="st5" width="1.5" height="1.5"/>
		<rect x="311.1" y="338.6" class="st5" width="1.5" height="1.5"/>
		<rect x="314.3" y="353.6" class="st5" width="1.5" height="1.5"/>
		<rect x="308" y="341.6" class="st5" width="1.5" height="1.5"/>
		<rect x="304.9" y="341.6" class="st5" width="1.5" height="1.5"/>
		<rect x="311.1" y="341.6" class="st5" width="1.5" height="1.5"/>
		<rect x="314.3" y="341.6" class="st5" width="1.5" height="1.5"/>
		<rect x="308" y="344.6" class="st5" width="1.5" height="1.5"/>
		<rect x="304.9" y="344.6" class="st5" width="1.5" height="1.5"/>
		<rect x="311.1" y="344.6" class="st5" width="1.5" height="1.5"/>
		<rect x="314.3" y="344.6" class="st5" width="1.5" height="1.5"/>
		<rect x="308" y="347.6" class="st5" width="1.5" height="1.5"/>
		<rect x="304.9" y="347.6" class="st5" width="1.5" height="1.5"/>
		<rect x="311.1" y="347.6" class="st5" width="1.5" height="1.5"/>
		<rect x="314.3" y="347.6" class="st5" width="1.5" height="1.5"/>
		<rect x="308" y="350.6" class="st5" width="1.5" height="1.5"/>
		<rect x="304.9" y="350.6" class="st5" width="1.5" height="1.5"/>
		<rect x="311.1" y="350.6" class="st5" width="1.5" height="1.5"/>
		<rect x="314.3" y="350.6" class="st5" width="1.5" height="1.5"/>
		<rect x="308" y="353.6" class="st5" width="1.5" height="1.5"/>
		<rect x="304.9" y="353.6" class="st5" width="1.5" height="1.5"/>
		<rect x="311.1" y="353.6" class="st5" width="1.5" height="1.5"/>
		<rect x="314.3" y="368.6" class="st5" width="1.5" height="1.5"/>
		<rect x="308" y="356.6" class="st5" width="1.5" height="1.5"/>
		<rect x="304.9" y="356.6" class="st5" width="1.5" height="1.5"/>
		<rect x="311.1" y="356.6" class="st5" width="1.5" height="1.5"/>
		<rect x="314.3" y="356.6" class="st5" width="1.5" height="1.5"/>
		<rect x="308" y="359.6" class="st5" width="1.5" height="1.5"/>
		<rect x="304.9" y="359.6" class="st5" width="1.5" height="1.5"/>
		<rect x="311.1" y="359.6" class="st5" width="1.5" height="1.5"/>
		<rect x="314.3" y="359.6" class="st5" width="1.5" height="1.5"/>
		<rect x="308" y="362.6" class="st5" width="1.5" height="1.5"/>
		<rect x="304.9" y="362.6" class="st5" width="1.5" height="1.5"/>
		<rect x="311.1" y="362.6" class="st5" width="1.5" height="1.5"/>
		<rect x="314.3" y="362.6" class="st5" width="1.5" height="1.5"/>
		<rect x="308" y="365.6" class="st5" width="1.5" height="1.5"/>
		<rect x="304.9" y="365.6" class="st5" width="1.5" height="1.5"/>
		<rect x="311.1" y="365.6" class="st5" width="1.5" height="1.5"/>
		<rect x="314.3" y="365.6" class="st5" width="1.5" height="1.5"/>
		<rect x="308" y="368.6" class="st5" width="1.5" height="1.5"/>
		<rect x="304.9" y="368.6" class="st5" width="1.5" height="1.5"/>
		<rect x="308" y="371.6" class="st5" width="1.5" height="1.5"/>
		<rect x="304.9" y="371.6" class="st5" width="1.5" height="1.5"/>
		<rect x="311.1" y="371.6" class="st5" width="1.5" height="1.5"/>
		<rect x="314.3" y="371.6" class="st5" width="1.5" height="1.5"/>
		<rect x="308" y="374.6" class="st5" width="1.5" height="1.5"/>
		<rect x="304.9" y="374.6" class="st5" width="1.5" height="1.5"/>
		<rect x="311.1" y="374.6" class="st5" width="1.5" height="1.5"/>
		<rect x="314.3" y="374.6" class="st5" width="1.5" height="1.5"/>
	</g>
	<polygon class="st17" points="313.1,378.6 313.1,372.4 340.2,372.4 340.2,378.6 	"/>
	<polygon class="st18" points="343.4,369.4 340.2,374.2 313.1,374.2 310,369.4 	"/>
	<path class="st19" d="M342.9,369.5c0.4,0,0.4-0.2,0.1-0.4c-1.8-1.1-7.7-4.1-16.2-4.1c-10.3,0-16.8,4.5-16.8,4.5H342.9z"/>
</g>
<g id="clouds">
	<path class="st20" d="M135.1,235.1c0,0-0.6-5.7-7.4-5.7s-7.7,6.4-7.7,6.4s-0.9-0.4-2.5-0.4c-1.6,0.1-6.4,2-5.7,7c0,0-3.7,1-3.7,3.8
		c0,2.9,3.1,3.3,3.1,3.3h48.9c0,0,1.6-0.3,1.6-2.5s-3-2.3-3-2.3l-5,0.1c0,0-0.1-6.1-7-6.1c0,0-3.1,0.1-3.8,1.3c0,0,1-4.8-5.3-4.8
		c0,0-2-0.1-2.8,0.8C135,236.1,135.3,236,135.1,235.1z"/>
	<path class="st20" d="M359.3,261c0,0-1.1-0.8-3-0.8s-4.1,1.4-4.1,2.8c0,0-1.1-0.6-3.4-0.6s-5.2,2.5-5.2,4.9h-6.2
		c0,0-2.5,0.4-2.5,2.5s0.6,2.8,2.4,2.8s36,0,36,0s4.2-0.8,4.2-5.5s-5.2-5.5-5.2-5.5s-1.4-5-6.6-5S359.3,261,359.3,261z"/>
</g>
<g id="triggers">
	<circle id="trigger-middle-left" class="st21" cx="229.6" cy="142.3" r="0.8"/>
	<circle id="trigger-middle-right" class="st21" cx="265.9" cy="142.3" r="0.8"/>
	<circle id="trigger-top-right" class="st21" cx="261.3" cy="135" r="0.8"/>
	<circle id="trigger-hat-right" class="st21" cx="254.3" cy="80.2" r="0.8"/>
	<circle id="trigger-hat-left" class="st21" cx="241.1" cy="80.2" r="0.8"/>
	<circle id="trigger-top-left" class="st21" cx="234" cy="135" r="0.8"/>
	<circle id="trigger-bottom-left" class="st21" cx="230.7" cy="149.1" r="0.8"/>
	<circle id="trigger-bottom-right" class="st21" cx="264.7" cy="149.1" r="0.8"/>
</g>
</svg>
